<?xml version="1.0" standalone="no"?>
<!DOCTYPE svg PUBLIC "-//W3C//DTD SVG 1.1//EN" "http://www.w3.org/Graphics/SVG/1.1/DTD/svg11.dtd" >
<svg xmlns="http://www.w3.org/2000/svg" xmlns:xlink="http://www.w3.org/1999/xlink" version="1.1">
<metadata></metadata>
<defs>
<font id="pixel_cyrnormal" horiz-adv-x="1146" >
<font-face units-per-em="2048" ascent="1638" descent="-410" />
<missing-glyph horiz-adv-x="500" />
<glyph horiz-adv-x="0" />
<glyph unicode="&#xd;" horiz-adv-x="1024" />
<glyph unicode=" " />
<glyph unicode="!" horiz-adv-x="573" d="M0 0h287v287h-287v-287zM0 573h287v861h-287v-861z" />
<glyph unicode="&#x22;" d="M0 1147h287v287h-287v-287zM573 1147h287v287h-287v-287z" />
<glyph unicode="#" horiz-adv-x="1720" d="M0 287h287v-287h286v287h287v-287h287v287h287v286h-287v287h287v287h-287v287h-287v-287h-287v287h-286v-287h-287v-287h287v-287h-287v-286zM573 573v287h287v-287h-287z" />
<glyph unicode="%" horiz-adv-x="1433" d="M0 1147h287v287h-287v-287zM287 0h286v573h287v861h-287v-574h-286v-860zM860 0h287v287h-287v-287z" />
<glyph unicode="&#x26;" horiz-adv-x="1433" d="M0 0h860v573h287v287h-287v574h-860v-574h287v-287h286v-286h-286v286h-287v-573zM287 860v287h286v-287h-286z" />
<glyph unicode="'" horiz-adv-x="573" d="M0 860h287v574h-287v-574z" />
<glyph unicode="(" horiz-adv-x="860" d="M0 287h287v-287h286v287h-286v860h-287v-860zM287 1147h286v287h-286v-287z" />
<glyph unicode=")" horiz-adv-x="860" d="M0 0h287v287h-287v-287zM0 1147h287v-860h286v860h-286v287h-287v-287z" />
<glyph unicode="*" d="M0 287h287v286h-287v-286zM0 860h287v-287h286v-286h287v286h-287v287h-286v287h-287v-287zM573 860h287v287h-287v-287z" />
<glyph unicode="+" d="M0 573h287v-286h286v286h287v287h-287v287h-286v-287h-287v-287z" />
<glyph unicode="," horiz-adv-x="860" d="M0 0h573v573h-286v-286h-287v-287z" />
<glyph unicode="-" d="M0 573h860v287h-860v-287z" />
<glyph unicode="." horiz-adv-x="573" d="M0 0h287v287h-287v-287z" />
<glyph unicode="/" horiz-adv-x="860" d="M0 0h287v573h286v861h-286v-574h-287v-860z" />
<glyph unicode="0" d="M0 0h860v1434h-860v-1434zM287 287v860h286v-860h-286z" />
<glyph unicode="1" horiz-adv-x="860" d="M0 1147h287v-1147h286v1434h-573v-287z" />
<glyph unicode="2" d="M0 0h860v287h-573v286h573v861h-860v-287h573v-287h-573v-860z" />
<glyph unicode="3" d="M0 0h860v1434h-860v-287h573v-287h-286v-287h286v-286h-573v-287z" />
<glyph unicode="4" d="M0 573h573v-573h287v1434h-287v-574h-286v574h-287v-861z" />
<glyph unicode="5" d="M0 0h860v860h-573v287h573v287h-860v-861h573v-286h-573v-287z" />
<glyph unicode="6" d="M0 0h860v860h-573v574h-287v-1434zM287 287v286h286v-286h-286z" />
<glyph unicode="7" d="M0 1147h573v-1147h287v1434h-860v-287z" />
<glyph unicode="8" d="M0 0h860v1434h-860v-1434zM287 287v286h286v-286h-286zM287 860v287h286v-287h-286z" />
<glyph unicode="9" d="M0 573h573v-573h287v1434h-860v-861zM287 860v287h286v-287h-286z" />
<glyph unicode=":" horiz-adv-x="573" d="M0 287h287v286h-287v-286zM0 860h287v287h-287v-287z" />
<glyph unicode=";" horiz-adv-x="573" d="M0 287v-574h287v574h-287zM0 860h287v287h-287v-287z" />
<glyph unicode="&#x3c;" d="M0 573h287v-286h286v-287h287v287h-287v286h-286v287h-287v-287zM287 860h286v287h-286v-287zM573 1147h287v287h-287v-287z" />
<glyph unicode="=" d="M0 287h860v286h-860v-286zM0 860h860v287h-860v-287z" />
<glyph unicode="&#x3e;" d="M0 0h287v287h-287v-287zM0 1147h287v-287h286v-287h287v287h-287v287h-286v287h-287v-287zM287 287h286v286h-286v-286z" />
<glyph unicode="?" d="M0 1147h573v-287h-286v-287h573v861h-860v-287zM287 0h286v287h-286v-287z" />
<glyph unicode="@" horiz-adv-x="1720" d="M0 0h287v1147h-287v-1147zM287 1147h860v-287h-574v-860h574v287h-287v286h287v-286h287v1147h-1147v-287z" />
<glyph unicode="A" d="M0 0h287v573h286v-573h287v1434h-860v-1434zM287 860v287h286v-287h-286z" />
<glyph unicode="B" horiz-adv-x="1433" d="M0 0h1147v860h-287v574h-860v-1434zM287 287v286h573v-286h-573zM287 860v287h286v-287h-286z" />
<glyph unicode="C" d="M0 0h860v287h-573v860h573v287h-860v-1434z" />
<glyph unicode="D" d="M0 0h573v287h-286v860h286v-860h287v860h-287v287h-573v-1434z" />
<glyph unicode="E" d="M0 0h860v287h-573v286h286v287h-286v287h573v287h-860v-1434z" />
<glyph unicode="F" d="M0 0h287v573h573v287h-573v287h573v287h-860v-1434z" />
<glyph unicode="G" horiz-adv-x="1433" d="M0 0h1147v860h-574v-287h287v-286h-573v860h860v287h-1147v-1434z" />
<glyph unicode="H" d="M0 0h287v573h286v-573h287v1434h-287v-574h-286v574h-287v-1434z" />
<glyph unicode="I" horiz-adv-x="573" d="M0 0h287v1434h-287v-1434z" />
<glyph unicode="J" d="M0 0h860v1434h-860v-287h573v-860h-286v286h-287v-573z" />
<glyph unicode="K" d="M0 0h287v573h286v-573h287v573h-287v287h-286v574h-287v-1434zM573 860h287v574h-287v-574z" />
<glyph unicode="L" d="M0 0h860v287h-573v1147h-287v-1434z" />
<glyph unicode="M" horiz-adv-x="1720" d="M0 0h287v860h286v-287h287v287h-287v287h-286v287h-287v-1434zM860 860h287v-860h287v1434h-287v-287h-287v-287z" />
<glyph unicode="N" horiz-adv-x="1433" d="M0 0h287v860h286v-287h287v-573h287v1434h-287v-574h-287v287h-286v287h-287v-1434z" />
<glyph unicode="O" d="M0 0h860v1434h-860v-1434zM287 287v860h286v-860h-286z" />
<glyph unicode="P" d="M0 0h287v573h573v861h-860v-1434zM287 860v287h286v-287h-286z" />
<glyph unicode="Q" horiz-adv-x="1433" d="M0 0h1147v287h-287v1147h-860v-1434zM287 287v860h286v-860h-286z" />
<glyph unicode="R" d="M0 0h287v573h286v-573h287v573h-287v287h-286v287h286v-287h287v574h-860v-1434z" />
<glyph unicode="S" d="M0 0h860v860h-573v287h573v287h-860v-861h573v-286h-573v-287z" />
<glyph unicode="T" d="M0 1147h287v-1147h286v1147h287v287h-860v-287z" />
<glyph unicode="U" d="M0 0h860v1434h-287v-1147h-286v1147h-287v-1434z" />
<glyph unicode="V" d="M0 287h287v-287h286v287h287v1147h-287v-861h-286v861h-287v-1147z" />
<glyph unicode="W" horiz-adv-x="1720" d="M0 0h287v287h286v286h-286v861h-287v-1434zM573 573h287v-286h287v-287h287v1434h-287v-861h-287v287h-287v-287z" />
<glyph unicode="X" d="M0 0h287v573h-287v-573zM0 860h287v-287h286v-573h287v573h-287v287h-286v574h-287v-574zM573 860h287v574h-287v-574z" />
<glyph unicode="Y" d="M0 573h287v-573h286v573h287v861h-287v-574h-286v574h-287v-861z" />
<glyph unicode="Z" d="M0 0h860v287h-573v286h-287v-573zM0 1147h573v-287h287v574h-860v-287zM287 573h286v287h-286v-287z" />
<glyph unicode="[" horiz-adv-x="860" d="M0 0h573v287h-286v860h286v287h-573v-1434z" />
<glyph unicode="\" horiz-adv-x="860" d="M0 573h287v-573h286v860h-286v574h-287v-861z" />
<glyph unicode="]" horiz-adv-x="860" d="M0 0h573v1434h-573v-287h287v-860h-287v-287z" />
<glyph unicode="^" d="M0 860h287v287h-287v-287zM287 1147h286v-287h287v287h-287v287h-286v-287z" />
<glyph unicode="_" d="M0 0h860v287h-860v-287z" />
<glyph unicode="`" horiz-adv-x="573" d="M0 860h287v574h-287v-574z" />
<glyph unicode="a" d="M0 0h287v573h286v-573h287v1434h-860v-1434zM287 860v287h286v-287h-286z" />
<glyph unicode="b" horiz-adv-x="1433" d="M0 0h1147v860h-287v574h-860v-1434zM287 287v286h573v-286h-573zM287 860v287h286v-287h-286z" />
<glyph unicode="c" d="M0 0h860v287h-573v860h573v287h-860v-1434z" />
<glyph unicode="d" d="M0 0h573v287h-286v860h286v-860h287v860h-287v287h-573v-1434z" />
<glyph unicode="e" d="M0 0h860v287h-573v286h286v287h-286v287h573v287h-860v-1434z" />
<glyph unicode="f" d="M0 0h287v573h573v287h-573v287h573v287h-860v-1434z" />
<glyph unicode="g" horiz-adv-x="1433" d="M0 0h1147v860h-574v-287h287v-286h-573v860h860v287h-1147v-1434z" />
<glyph unicode="h" d="M0 0h287v573h286v-573h287v1434h-287v-574h-286v574h-287v-1434z" />
<glyph unicode="i" horiz-adv-x="573" d="M0 0h287v1434h-287v-1434z" />
<glyph unicode="j" d="M0 0h860v1434h-860v-287h573v-860h-286v286h-287v-573z" />
<glyph unicode="k" d="M0 0h287v573h286v-573h287v573h-287v287h-286v574h-287v-1434zM573 860h287v574h-287v-574z" />
<glyph unicode="l" d="M0 0h860v287h-573v1147h-287v-1434z" />
<glyph unicode="m" horiz-adv-x="1720" d="M0 0h287v860h286v-287h287v287h-287v287h-286v287h-287v-1434zM860 860h287v-860h287v1434h-287v-287h-287v-287z" />
<glyph unicode="n" horiz-adv-x="1433" d="M0 0h287v860h286v-287h287v-573h287v1434h-287v-574h-287v287h-286v287h-287v-1434z" />
<glyph unicode="o" d="M0 0h860v1434h-860v-1434zM287 287v860h286v-860h-286z" />
<glyph unicode="p" d="M0 0h287v573h573v861h-860v-1434zM287 860v287h286v-287h-286z" />
<glyph unicode="q" horiz-adv-x="1433" d="M0 0h1147v287h-287v1147h-860v-1434zM287 287v860h286v-860h-286z" />
<glyph unicode="r" d="M0 0h287v573h286v-573h287v573h-287v287h-286v287h286v-287h287v574h-860v-1434z" />
<glyph unicode="s" d="M0 0h860v860h-573v287h573v287h-860v-861h573v-286h-573v-287z" />
<glyph unicode="t" d="M0 1147h287v-1147h286v1147h287v287h-860v-287z" />
<glyph unicode="u" d="M0 0h860v1434h-287v-1147h-286v1147h-287v-1434z" />
<glyph unicode="v" d="M0 287h287v-287h286v287h287v1147h-287v-861h-286v861h-287v-1147z" />
<glyph unicode="w" horiz-adv-x="1720" d="M0 0h287v287h286v286h-286v861h-287v-1434zM573 573h287v-286h287v-287h287v1434h-287v-861h-287v287h-287v-287z" />
<glyph unicode="x" d="M0 0h287v573h-287v-573zM0 860h287v-287h286v-573h287v573h-287v287h-286v574h-287v-574zM573 860h287v574h-287v-574z" />
<glyph unicode="y" d="M0 573h287v-573h286v573h287v861h-287v-574h-286v574h-287v-861z" />
<glyph unicode="z" d="M0 0h860v287h-573v286h-287v-573zM0 1147h573v-287h287v574h-860v-287zM287 573h286v287h-286v-287z" />
<glyph unicode="{" d="M0 573h287v-573h573v287h-287v286h-286v287h-287v-287zM287 860h286v287h287v287h-573v-574z" />
<glyph unicode="|" horiz-adv-x="573" d="M0 -287h287v1721h-287v-1721z" />
<glyph unicode="}" d="M0 0h573v573h-286v-286h-287v-287zM0 1147h287v-287h286v-287h287v287h-287v574h-573v-287z" />
<glyph unicode="~" horiz-adv-x="1433" d="M0 573h287v287h286v-287h287v287h287v287h-287v-287h-287v287h-286v-287h-287v-287z" />
<glyph unicode="&#xa0;" />
<glyph unicode="&#xa3;" d="M0 0h860v1434h-860v-287h573v-860h-286v286h-287v-573z" />
<glyph unicode="&#xa5;" d="M0 0h287v860h573v574h-287v-287h-573v-1147z" />
<glyph unicode="&#xa6;" horiz-adv-x="573" d="M0 -287h287v1721h-287v-1721z" />
<glyph unicode="&#xa8;" d="M0 0h860v287h-573v286h286v287h-286v287h573v287h-860v-1434zM0 1720h287v287h-287v-287zM573 1720h287v287h-287v-287z" />
<glyph unicode="&#xaa;" d="M0 287h287v-287h573v287h-573v286h286v287h-286v287h-287v-860zM287 1147h573v287h-573v-287z" />
<glyph unicode="&#xab;" horiz-adv-x="1720" d="M0 573h287v-286h286v-287h287v287h-287v286h861v287h-861v287h-286v-287h-287v-287zM573 1147h287v287h-287v-287z" />
<glyph unicode="&#xac;" d="M0 573h573v-286h287v573h-860v-287z" />
<glyph unicode="&#xad;" horiz-adv-x="860" d="M0 573h573v287h-573v-287z" />
<glyph unicode="&#xaf;" d="M0 1147h287v-1147h286v1147h-286v287h-287v-287zM573 1147h287v287h-287v-287z" />
<glyph unicode="&#xb2;" horiz-adv-x="573" d="M0 0h287v1434h-287v-1434z" />
<glyph unicode="&#xb3;" horiz-adv-x="573" d="M0 0h287v1434h-287v-1434z" />
<glyph unicode="&#xb4;" d="M0 0h287v860h573v574h-287v-287h-573v-1147z" />
<glyph unicode="&#xb7;" horiz-adv-x="573" d="M0 573h287v287h-287v-287z" />
<glyph unicode="&#xb8;" d="M0 0h860v287h-573v286h286v287h-286v287h573v287h-860v-1434zM0 1720h287v287h-287v-287zM573 1720h287v287h-287v-287z" />
<glyph unicode="&#xba;" d="M0 287h287v-287h573v287h-573v286h286v287h-286v287h-287v-860zM287 1147h573v287h-573v-287z" />
<glyph unicode="&#xbb;" horiz-adv-x="1720" d="M0 573h860v-286h287v286h287v287h-287v287h-287v287h-287v-287h287v-287h-860v-287zM573 0h287v287h-287v-287z" />
<glyph unicode="&#xbc;" d="M0 0h860v1434h-860v-287h573v-860h-286v286h-287v-573z" />
<glyph unicode="&#xbd;" d="M0 0h860v860h-573v287h573v287h-860v-861h573v-286h-573v-287z" />
<glyph unicode="&#xbe;" d="M0 0h860v860h-573v287h573v287h-860v-861h573v-286h-573v-287z" />
<glyph unicode="&#xbf;" d="M0 1147h287v-1147h286v1147h-286v287h-287v-287zM573 1147h287v287h-287v-287z" />
<glyph unicode="&#xc0;" d="M0 0h287v573h286v-573h287v1434h-860v-1434zM287 860v287h286v-287h-286z" />
<glyph unicode="&#xc1;" horiz-adv-x="1433" d="M0 0h1147v860h-860v287h573v287h-860v-1434zM287 287v286h573v-286h-573z" />
<glyph unicode="&#xc2;" horiz-adv-x="1433" d="M0 0h1147v860h-287v574h-860v-1434zM287 287v286h573v-286h-573zM287 860v287h286v-287h-286z" />
<glyph unicode="&#xc3;" d="M0 0h287v1147h573v287h-860v-1434z" />
<glyph unicode="&#xc4;" horiz-adv-x="1720" d="M0 0h1434v287h-287v1147h-574v-287h287v-860h-287v860h-286v-860h-287v-287z" />
<glyph unicode="&#xc5;" d="M0 0h860v287h-573v286h286v287h-286v287h573v287h-860v-1434z" />
<glyph unicode="&#xc6;" horiz-adv-x="1720" d="M0 0h287v573h286v-573h287v573h287v-573h287v573h-287v287h-287v574h-287v-574h-286v574h-287v-574h287v-287h-287v-573zM1147 860h287v574h-287v-574z" />
<glyph unicode="&#xc7;" horiz-adv-x="1433" d="M0 0h1147v860h-287v574h-860v-287h573v-287h-573v-287h860v-286h-860v-287z" />
<glyph unicode="&#xc8;" horiz-adv-x="1433" d="M0 0h287v287h286v286h-286v861h-287v-1434zM573 573h287v-573h287v1434h-287v-574h-287v-287z" />
<glyph unicode="&#xc9;" horiz-adv-x="1433" d="M0 0h287v287h286v286h-286v861h-287v-1434zM430 1434h287v286h-287v-286zM573 573h287v-573h287v1434h-287v-574h-287v-287z" />
<glyph unicode="&#xca;" d="M0 0h287v573h286v-573h287v573h-287v287h-286v574h-287v-1434zM573 860h287v574h-287v-574z" />
<glyph unicode="&#xcb;" d="M0 0h287v1147h-287v-1147zM287 1147h286v-1147h287v1434h-573v-287z" />
<glyph unicode="&#xcc;" horiz-adv-x="1720" d="M0 0h287v860h286v-287h287v287h-287v287h-286v287h-287v-1434zM860 860h287v-860h287v1434h-287v-287h-287v-287z" />
<glyph unicode="&#xcd;" d="M0 0h287v573h286v-573h287v1434h-287v-574h-286v574h-287v-1434z" />
<glyph unicode="&#xce;" d="M0 0h860v1434h-860v-1434zM287 287v860h286v-860h-286z" />
<glyph unicode="&#xcf;" d="M0 0h287v1147h286v-1147h287v1434h-860v-1434z" />
<glyph unicode="&#xd0;" d="M0 0h287v573h573v861h-860v-1434zM287 860v287h286v-287h-286z" />
<glyph unicode="&#xd1;" d="M0 0h860v287h-573v860h573v287h-860v-1434z" />
<glyph unicode="&#xd2;" d="M0 1147h287v-1147h286v1147h287v287h-860v-287z" />
<glyph unicode="&#xd3;" d="M0 0h573v287h-573v-287zM0 573h573v-286h287v1147h-287v-574h-286v574h-287v-861z" />
<glyph unicode="&#xd4;" horiz-adv-x="1720" d="M0 287h573v-287h287v287h574v860h-574v287h-287v-287h-573v-860zM287 573v287h286v-287h-286zM860 573v287h287v-287h-287z" />
<glyph unicode="&#xd5;" d="M0 0h287v573h-287v-573zM0 860h287v-287h286v-573h287v573h-287v287h-286v574h-287v-574zM573 860h287v574h-287v-574z" />
<glyph unicode="&#xd6;" horiz-adv-x="1433" d="M0 0h1147v287h-287v1147h-287v-1147h-286v1147h-287v-1434z" />
<glyph unicode="&#xd7;" d="M0 573h573v-573h287v1434h-287v-574h-286v574h-287v-861z" />
<glyph unicode="&#xd8;" horiz-adv-x="1720" d="M0 0h1434v1434h-287v-1147h-287v1147h-287v-1147h-286v1147h-287v-1434z" />
<glyph unicode="&#xd9;" horiz-adv-x="2007" d="M0 0h1720v287h-286v1147h-287v-1147h-287v1147h-287v-1147h-286v1147h-287v-1434z" />
<glyph unicode="&#xda;" horiz-adv-x="1433" d="M0 1147h287v-1147h860v860h-574v574h-573v-287zM573 287v286h287v-286h-287z" />
<glyph unicode="&#xdb;" horiz-adv-x="1720" d="M0 0h860v860h-573v574h-287v-1434zM287 287v286h286v-286h-286zM1147 0h287v1434h-287v-1434z" />
<glyph unicode="&#xdc;" d="M0 0h860v860h-573v574h-287v-1434zM287 287v286h286v-286h-286z" />
<glyph unicode="&#xdd;" d="M0 0h573v287h-573v-287zM0 1147h573v-287h-286v-287h286v-286h287v860h-287v287h-573v-287z" />
<glyph unicode="&#xde;" horiz-adv-x="1720" d="M0 0h287v573h286v-573h861v1434h-861v-574h-286v574h-287v-1434zM860 287v860h287v-860h-287z" />
<glyph unicode="&#xdf;" d="M0 0h287v573h-287v-573zM0 860h287v-287h286v-573h287v1434h-860v-574zM287 860v287h286v-287h-286z" />
<glyph unicode="&#xe0;" d="M0 0h287v573h286v-573h287v1434h-860v-1434zM287 860v287h286v-287h-286z" />
<glyph unicode="&#xe1;" horiz-adv-x="1433" d="M0 0h1147v860h-860v287h573v287h-860v-1434zM287 287v286h573v-286h-573z" />
<glyph unicode="&#xe2;" horiz-adv-x="1433" d="M0 0h1147v860h-287v574h-860v-1434zM287 287v286h573v-286h-573zM287 860v287h286v-287h-286z" />
<glyph unicode="&#xe3;" d="M0 0h287v1147h573v287h-860v-1434z" />
<glyph unicode="&#xe4;" horiz-adv-x="1720" d="M0 0h1434v287h-287v1147h-574v-287h287v-860h-287v860h-286v-860h-287v-287z" />
<glyph unicode="&#xe5;" d="M0 0h860v287h-573v286h286v287h-286v287h573v287h-860v-1434z" />
<glyph unicode="&#xe6;" horiz-adv-x="1720" d="M0 0h287v573h286v-573h287v573h287v-573h287v573h-287v287h-287v574h-287v-574h-286v574h-287v-574h287v-287h-287v-573zM1147 860h287v574h-287v-574z" />
<glyph unicode="&#xe7;" horiz-adv-x="1433" d="M0 0h1147v860h-287v574h-860v-287h573v-287h-573v-287h860v-286h-860v-287z" />
<glyph unicode="&#xe8;" horiz-adv-x="1433" d="M0 0h287v287h286v286h-286v861h-287v-1434zM573 573h287v-573h287v1434h-287v-574h-287v-287z" />
<glyph unicode="&#xe9;" horiz-adv-x="1433" d="M0 0h287v287h286v286h-286v861h-287v-1434zM430 1434h287v286h-287v-286zM573 573h287v-573h287v1434h-287v-574h-287v-287z" />
<glyph unicode="&#xea;" d="M0 0h287v573h286v-573h287v573h-287v287h-286v574h-287v-1434zM573 860h287v574h-287v-574z" />
<glyph unicode="&#xeb;" d="M0 0h287v1147h-287v-1147zM287 1147h286v-1147h287v1434h-573v-287z" />
<glyph unicode="&#xec;" horiz-adv-x="1720" d="M0 0h287v860h286v-287h287v287h-287v287h-286v287h-287v-1434zM860 860h287v-860h287v1434h-287v-287h-287v-287z" />
<glyph unicode="&#xed;" d="M0 0h287v573h286v-573h287v1434h-287v-574h-286v574h-287v-1434z" />
<glyph unicode="&#xee;" d="M0 0h860v1434h-860v-1434zM287 287v860h286v-860h-286z" />
<glyph unicode="&#xef;" d="M0 0h287v1147h286v-1147h287v1434h-860v-1434z" />
<glyph unicode="&#xf0;" d="M0 0h287v573h573v861h-860v-1434zM287 860v287h286v-287h-286z" />
<glyph unicode="&#xf1;" d="M0 0h860v287h-573v860h573v287h-860v-1434z" />
<glyph unicode="&#xf2;" d="M0 1147h287v-1147h286v1147h287v287h-860v-287z" />
<glyph unicode="&#xf3;" d="M0 0h573v287h-573v-287zM0 573h573v-286h287v1147h-287v-574h-286v574h-287v-861z" />
<glyph unicode="&#xf4;" horiz-adv-x="1720" d="M0 287h573v-287h287v287h574v860h-574v287h-287v-287h-573v-860zM287 573v287h286v-287h-286zM860 573v287h287v-287h-287z" />
<glyph unicode="&#xf5;" d="M0 0h287v573h-287v-573zM0 860h287v-287h286v-573h287v573h-287v287h-286v574h-287v-574zM573 860h287v574h-287v-574z" />
<glyph unicode="&#xf6;" horiz-adv-x="1433" d="M0 0h1147v287h-287v1147h-287v-1147h-286v1147h-287v-1434z" />
<glyph unicode="&#xf7;" d="M0 573h573v-573h287v1434h-287v-574h-286v574h-287v-861z" />
<glyph unicode="&#xf8;" horiz-adv-x="1720" d="M0 0h1434v1434h-287v-1147h-287v1147h-287v-1147h-286v1147h-287v-1434z" />
<glyph unicode="&#xf9;" horiz-adv-x="2007" d="M0 0h1720v287h-286v1147h-287v-1147h-287v1147h-287v-1147h-286v1147h-287v-1434z" />
<glyph unicode="&#xfa;" horiz-adv-x="1433" d="M0 1147h287v-1147h860v860h-574v574h-573v-287zM573 287v286h287v-286h-287z" />
<glyph unicode="&#xfb;" horiz-adv-x="1720" d="M0 0h860v860h-573v574h-287v-1434zM287 287v286h286v-286h-286zM1147 0h287v1434h-287v-1434z" />
<glyph unicode="&#xfc;" d="M0 0h860v860h-573v574h-287v-1434zM287 287v286h286v-286h-286z" />
<glyph unicode="&#xfd;" d="M0 0h573v287h-573v-287zM0 1147h573v-287h-286v-287h286v-286h287v860h-287v287h-573v-287z" />
<glyph unicode="&#xfe;" horiz-adv-x="1720" d="M0 0h287v573h286v-573h861v1434h-861v-574h-286v574h-287v-1434zM860 287v860h287v-860h-287z" />
<glyph unicode="&#xff;" d="M0 0h287v573h-287v-573zM0 860h287v-287h286v-573h287v1434h-860v-574zM287 860v287h286v-287h-286z" />
<glyph unicode="&#x2c6;" d="M0 860h287v287h-287v-287zM287 1147h286v-287h287v287h-287v287h-286v-287z" />
<glyph unicode="&#x2000;" horiz-adv-x="1003" />
<glyph unicode="&#x2001;" horiz-adv-x="2007" />
<glyph unicode="&#x2002;" horiz-adv-x="1003" />
<glyph unicode="&#x2003;" horiz-adv-x="2007" />
<glyph unicode="&#x2004;" horiz-adv-x="669" />
<glyph unicode="&#x2005;" horiz-adv-x="501" />
<glyph unicode="&#x2006;" horiz-adv-x="334" />
<glyph unicode="&#x2007;" horiz-adv-x="334" />
<glyph unicode="&#x2008;" horiz-adv-x="250" />
<glyph unicode="&#x2009;" horiz-adv-x="401" />
<glyph unicode="&#x200a;" horiz-adv-x="111" />
<glyph unicode="&#x2010;" d="M0 573h860v287h-860v-287z" />
<glyph unicode="&#x2011;" d="M0 573h860v287h-860v-287z" />
<glyph unicode="&#x2012;" d="M0 573h860v287h-860v-287z" />
<glyph unicode="&#x2013;" d="M0 573h860v287h-860v-287z" />
<glyph unicode="&#x2014;" d="M0 573h860v287h-860v-287z" />
<glyph unicode="&#x2018;" horiz-adv-x="573" d="M0 860h287v574h-287v-574z" />
<glyph unicode="&#x2019;" horiz-adv-x="573" d="M0 860h287v574h-287v-574z" />
<glyph unicode="&#x201a;" horiz-adv-x="860" d="M0 0h573v573h-286v-286h-287v-287z" />
<glyph unicode="&#x201c;" d="M0 1147h287v287h-287v-287zM573 1147h287v287h-287v-287z" />
<glyph unicode="&#x201d;" d="M0 1147h287v287h-287v-287zM573 1147h287v287h-287v-287z" />
<glyph unicode="&#x202f;" horiz-adv-x="401" />
<glyph unicode="&#x2039;" d="M0 573h287v-286h286v-287h287v287h-287v286h-286v287h-287v-287zM287 860h286v287h-286v-287zM573 1147h287v287h-287v-287z" />
<glyph unicode="&#x203a;" d="M0 0h287v287h-287v-287zM0 1147h287v-287h286v-287h287v287h-287v287h-286v287h-287v-287zM287 287h286v286h-286v-286z" />
<glyph unicode="&#x205f;" horiz-adv-x="501" />
<glyph unicode="&#x25fc;" horiz-adv-x="1433" d="M0 0v1434h1434v-1434h-1434z" />
</font>
</defs>
</svg>
